Coordinates

Units are S.I. units (second, meters, Newtons, ...)
If the header above contains a line with 'inDegrees', this indicates whether rotational values are in degrees (yes) or radians (no).

inDegrees=no
nColumns=22
nRows=29
DataType=double
version=3
OpenSimVersion=4.6-2026-03-31-d6972f9e6
endheader
time	/jointset/ground_pelvis/pelvis_tilt/value	/jointset/ground_pelvis/pelvis_list/value	/jointset/ground_pelvis/pelvis_rotation/value	/jointset/ground_pelvis/pelvis_tx/value	/jointset/ground_pelvis/pelvis_ty/value	/jointset/ground_pelvis/pelvis_tz/value	/jointset/hip_r/hip_flexion_r/value	/jointset/hip_r/hip_adduction_r/value	/jointset/hip_r/hip_rotation_r/value	/jointset/walker_knee_r/knee_angle_r/value	/jointset/patellofemoral_r/knee_angle_r_beta/value	/jointset/ankle_r/ankle_angle_r/value	/jointset/hip_l/hip_flexion_l/value	/jointset/hip_l/hip_adduction_l/value	/jointset/hip_l/hip_rotation_l/value	/jointset/walker_knee_l/knee_angle_l/value	/jointset/patellofemoral_l/knee_angle_l_beta/value	/jointset/ankle_l/ankle_angle_l/value	/jointset/back/lumbar_extension/value	/jointset/back/lumbar_bending/value	/jointset/back/lumbar_rotation/value
22.445	-0.6228234333059746	0.01372780024341256	0.03541643274787704	-2.456384049455756	0.4503718937378549	2.470439621055324	2.016329755882609	-0.2766659165837984	0.2414165407800907	2.142703782455971	2.142703782663165	0.5808639886537426	1.99796286777234	-0.1558181338695051	0.2285946487470046	2.145337900248606	2.145337900309437	0.5147808982837319	-0.4422141874839069	0.1039259083236169	-0.03983439342571298
22.45	-0.6225463597702801	0.01430866218454566	0.03526744654497175	-2.456636747777547	0.4511175610161987	2.470497588438983	2.015055241382138	-0.2759468582491996	0.2414171020909447	2.140497127507414	2.140497127675405	0.5805275780775602	1.996331565714659	-0.1558374327474151	0.2278444743876259	2.143251899712308	2.14325189984328	0.5143627940435123	-0.4426282414221788	0.1036503324910671	-0.03946458991093352
22.455	-0.6223161220501368	0.01488429634803303	0.03510353831568266	-2.456880691348549	0.4519639792241777	2.470557051412509	2.013585847175216	-0.2751599737824848	0.2413726741881869	2.138032025016305	2.138032025156909	0.5801839556715798	1.994513044269961	-0.1558137071630513	0.2270805051033226	2.140919268185162	2.140919268385592	0.5139930378750337	-0.4429299346509262	0.1033589147537017	-0.0391068136991282
22.46	-0.6221316246955713	0.01545603829667369	0.03492675913486661	-2.45711575381856	0.452910661385037	2.470617277110779	2.011923506962214	-0.2743117962903635	0.241282984564685	2.135308683188087	2.135308683312603	0.5798343507655845	1.992506576334295	-0.1557442728705145	0.2263012139726116	2.138340092534844	2.138340092804321	0.5136739880845722	-0.4431232173710922	0.1030526592569866	-0.0387566431896244
22.465	-0.6219907937265862	0.01602567405250154	0.0347393029756174	-2.457341776648454	0.4539570970878355	2.470677532415046	2.010069700117476	-0.2734093709051534	0.2411479307716736	2.132327613948462	2.132327614067099	0.5794801428111415	1.990310747123298	-0.1556270563347561	0.2255042651774825	2.135514743867923	2.135514744206327	0.5134076027034919	-0.4432130509282203	0.1027320039775257	-0.0384103932779182
22.47	-0.6218906754537108	0.01659533271433458	0.03454345986982774	-2.457558576986939	0.455102741438899	2.470737098299551	2.008025499761843	-0.2724601461533908	0.2409675392056043	2.129089636772949	2.129089636894274	0.5791227953679906	1.987923619148743	-0.1554606078931897	0.2246866613709904	2.132443875187469	2.132443875594922	0.5131953439669579	-0.4432052392986296	0.1023968921091586	-0.03806514172503041
22.475	-0.6218275924445845	0.01716736212594448	0.03434157501258903	-2.457765957348718	0.4563470000707687	2.470795282151115	2.00579166956664	-0.2714718786799707	0.240741898796873	2.12559585692041	2.125595857050873	0.5787638076337647	1.985342951727951	-0.155244093188751	0.2238449023560376	2.129128397759298	2.129128398236045	0.5130381135251455	-0.443106197054302	0.102046870776313	-0.03771873538257996
22.48	-0.621797340046866	0.01774419825473063	0.0341360137917996	-2.457963715952931	0.4576892106100869	2.470851428884641	2.003368800007037	-0.2704525472659472	0.2404710841409358	2.121847633153124	2.121847633296741	0.5784046639904263	1.98256645708702	-0.154977268085959	0.2229751487826975	2.125569446884707	2.125569447430959	0.5129362127330457	-0.4429226715489327	0.1016811998720774	-0.0373697789919255
22.485	-0.6217953991790095	0.01832824030917378	0.03392913024945948	-2.458151656477326	0.4591286226036854	2.470904931767293	2.00075746403131	-0.2694102689035883	0.240155082071061	2.117846546976052	2.117846547134334	0.5780467720597984	1.979592064674389	-0.1546604433765336	0.2220733852351208	2.121768346839486	2.121768347455263	0.5128893170357854	-0.4426614499410212	0.1012989534378523	-0.03701760809725532
22.49	-0.6218171454859696	0.01892174168457239	0.03372323635789766	-2.458329596558298	0.4606643785716891	2.470955243196943	1.997958372708179	-0.2683532117506757	0.2397937302113902	2.11359437495891	2.113594375131028	0.5776913938520686	1.976418167647686	-0.1542944435812578	0.2211355750220283	2.117726577394382	2.1177265780794	0.5128964607003595	-0.4423290799565955	0.1008991021493567	-0.03666224712004978
22.495	-0.6218580409979501	0.01952672328389497	0.0335205705342866	-2.458497374575141	0.4622954980897634	2.471001885159378	1.994972516836007	-0.2672895037297486	0.2393866721949111	2.109093063385872	2.109093063569035	0.5773395789747915	1.9730438331933	-0.1538805625445216	0.2201578002611417	2.113445742390095	2.113445743143739	0.5129560322656799	-0.4419316236618918	0.100480572127134	-0.03630435448041418
22.5	-0.6219137980094106	0.02014491267050925	0.03332326465106111	-2.458654854188102	0.464020865874838	2.471044458951464	1.991801284725068	-0.2662271380699239	0.2389333321375354	2.104344706968224	2.104344707158177	0.5769921067319533	1.96946896441302	-0.1534205180688806	0.2191363839198113	2.108927542535374	2.108927543356716	0.5130657801227191	-0.4414744553537031	0.100042279579547	-0.03594515745393503
22.505	-0.6219805081456959	0.02077771017200111	0.03313330918760502	-2.458801926216648	0.4658392243347805	2.471082653825366	1.988446549874311	-0.2651738773146305	0.2384329091492391	2.099351534562988	2.099351534754557	0.5766494397164196	1.965694406379261	-0.152916407316588	0.2180679926272229	2.104173755419261	2.104173756307071	0.5132228262914821	-0.4409621095960803	0.09958314316821665	-0.03558637931055224
22.51	-0.6220547328228003	0.02142618005214689	0.03295251644097122	-2.458938507602106	0.4677491703943218	2.471116254543321	1.984910725484276	-0.2641371563984821	0.2378843912144821	2.09411590656879	2.09411590675641	0.5763116870631195	1.961721994993312	-0.1523706645625127	0.2169497217264643	2.09918622726974	2.099186228222491	0.5134236842430508	-0.4403981809378046	0.09910207694473466	-0.03523016052916169
22.515	-0.622133553677964	0.02209106228889179	0.03278248122054318	-2.45906453731963	0.4697491558546326	2.471145148085631	1.981196784650574	-0.2631239844298789	0.2372865866014396	2.088640329299511	2.088640329477702	0.575978574607143	1.957554552234706	-0.1517860233174299	0.2157791666456786	2.0939668817912	2.093966882807066	0.5136642752060279	-0.4397852731762186	0.09859796725997479	-0.03487897476971952
22.52	-0.6222145826934037	0.02277280087297106	0.03262453722919667	-2.459179969466703	0.471837491013592	2.471169329535995	1.977308245006927	-0.2621408440764765	0.2366381699047296	2.082927485634177	2.082927485797937	0.5756494232959775	1.95319583109248	-0.1511654847722714	0.2145544840284863	2.088517746368191	2.08851774744507	0.5139399418920489	-0.4391249964626124	0.0980696376048481	-0.03453553888239574
22.525	-0.6222959316780032	0.02347158622692937	0.03247970763741681	-2.459284764206429	0.4740123523002204	2.471188907063656	1.973249114916224	-0.2611935872638645	0.2359377395855556	2.076980272973292	2.076980273118342	0.5753231407849818	1.948650410406714	-0.1505122939531574	0.213274442909544	2.082840988702984	2.08284098983853	0.5142454668358074	-0.438418014407351	0.09751580399004564	-0.03420271510820053
22.53	-0.6223761418813529	0.02418740903788171	0.03234865083376607	-2.45937887726845	0.4762717946295664	2.471204106224059	1.969023799039243	-0.2602873273078967	0.2351838843576292	2.070801839742477	2.070801839865348	0.5749982285556337	1.943923541572445	-0.1498299243902256	0.211938464476315	2.076938957018152	2.076938958209811	0.5145751060367852	-0.4376641433555367	0.09693502132831094	-0.03388340352052663
22.535	-0.6224540817737443	0.02492012156752694	0.03223160620286563	-2.459462248576196	0.4786137678795606	2.471215273320899	1.964636970415964	-0.259426333270784	0.2343752556053285	2.064395616662907	2.064395616760874	0.5746728033479818	1.93902095818086	-0.1491220684216627	0.2105466480651149	2.070814220771084	2.070814222016124	0.5149226470753742	-0.4368624957889667	0.0963256238034188	-0.03358042504710158
22.54	-0.622528833701198	0.02566950294435504	0.03212835065188888	-2.459534790951275	0.4810361356664047	2.471222875913337	1.960093431954609	-0.2586139420640048	0.2335106431591537	2.057765337838025	2.057765337908967	0.5743446328641303	1.933948670849506	-0.1483926207493724	0.2090997787482345	2.064469605697962	2.064469606993506	0.5152814994123628	-0.4360116431010502	0.0956856688286937	-0.03329640219071497
22.545	-0.6225995971145653	0.02643532652097382	0.03203818175696335	-2.459596380366194	0.4835366941868788	2.471227497479539	1.955397999258177	-0.2578525097146515	0.2325890546574744	2.05091504401162	2.050915044053895	0.574011186153057	1.928712774351465	-0.1476456341539061	0.2075993112396258	2.057908211008389	2.057908212351457	0.5156448198667779	-0.4351097630987857	0.09501289691698434	-0.03303365405388761
22.55	-0.6226656288148813	0.02721742822860633	0.03195994102278214	-2.459646848984256	0.4861131892345673	2.47122982418251	1.950555429311352	-0.2571434174765868	0.2316098019528191	2.043849064715629	2.043849064727953	0.5736696959787255	1.923319288268932	-0.146885229596929	0.2060473281783942	2.051133399144928	2.051133400532499	0.5160056659159775	-0.4341547444144187	0.09430471509096504	-0.03279412624366369
22.555	-0.622726223905678	0.02801577380418144	0.03189207902342195	-2.459685981221446	0.4887633302235068	2.471230624218617	1.945570400420519	-0.2564871323304965	0.2305725968310067	2.036571985236595	2.036571985217932	0.573317226456344	1.917774040058117	-0.1461154602532792	0.2044464763030849	2.044148760759562	2.044148762188656	0.5163571589450897	-0.4331442390293286	0.0935582033111898	-0.03257936870092584
22.56	-0.6227807265722716	0.02883052053908676	0.03183275114493114	-2.459713512114158	0.4914848007861685	2.471230722651442	1.940447531064935	-0.2558833055406794	0.2294776535564652	2.029088611064437	2.029088611013895	0.5729507361329204	1.912082588608397	-0.1453401476896765	0.2027998891107133	2.03695806908395	2.03695807055168	0.5166926355478536	-0.4320756720398207	0.09277013740835907	-0.03239056025086059
22.565	-0.6228285550356442	0.02966206918811269	0.03177992857269506	-2.459729127121388	0.4942752664109478	2.471230974871818	1.935191418319952	-0.2553308901766487	0.2283257919906715	2.021403939387155	2.02140393930394	0.5725671296873176	1.906250179821277	-0.1445627125530076	0.2011111047845812	2.029565236687482	2.029565238190995	0.517005773382601	-0.43094622618694	0.09193702190051416	-0.03222856825500474
22.57	-0.6228692282121814	0.03051110452347872	0.03173151391889702	-2.459732462916523	0.4971323804559933	2.471232240176713	1.929806679280003	-0.2548282673785477	0.2271185343478036	2.013523137587615	2.01352313747108	0.5721632998143847	1.900281722646084	-0.1437860131614234	0.1993839829846466	2.021974277085699	2.021974278621961	0.5172906936144862	-0.4297528181703879	0.09105512994536742	-0.03209403013575913
22.575	-0.6229023864963922	0.03137862415177509	0.03168545444619163	-2.459723108968442	0.5000537898101948	2.471235356186903	1.924297984731058	-0.2543733757966024	0.2258581889206191	2.005451525186324	2.0054515250362	0.5717361648162949	1.894181775649719	-0.1430122001602257	0.1976226213677391	2.014189269369852	2.014189270935304	0.5175420476071761	-0.4284920784616884	0.09012055013812136	-0.03198744599794259
22.58	-0.6229278028817593	0.03226595280159256	0.03163984337399327	-2.459700609657757	0.5030371406176795	2.471241115669581	1.918670078904369	-0.2539638336120404	0.2245479125948063	1.997194558965179	1.997194558781977	0.5712827049153824	1.887954539922472	-0.1422425998928346	0.1958312758629243	2.006214328574244	2.006214330164416	0.5177550873721739	-0.42716034036809	0.08912924033234365	-0.03190927157464319
22.585	-0.6229453829155265	0.03317473719539098	0.03159299763986654	-2.459664466697096	0.506080084028445	2.471250247749962	1.912927781283767	-0.2535970394249011	0.2231917422804724	1.98875782177653	1.988757821562003	0.5707999976813082	1.881603858514111	-0.1414776420593342	0.1940142914422024	1.998053587076419	1.998053588685631	0.5179257121257412	-0.4257536413216367	0.0880770898552051	-0.03185999902551923
